<svg width="800" height="800" xmlns="http://www.w3.org/2000/svg">
  <g fill="#38bdf8">
    <path d="M493.68 276.498c-1.305-2.54-90.277-148.697-129.957-204.58-.549-.823-6.59-8.443-16.407-8.306-9.886.206-15.927 7.003-16.545 7.895-60.962 82.175-189.957 298.768-190.025 298.837-22.243 37.208-34.189 79.91-34.189 124.326 0 133.526 107.713 241.72 240.621 241.72 11.26 0 20.39-9.2 20.39-20.527s-9.13-20.527-20.39-20.527c-110.321 0-199.705-89.863-199.705-200.734 0-36.866 9.886-72.29 28.353-103.182.137-.206.137-.412.206-.618.343-.48 5.63-11.053 10.64-20.664 8.445-16.27 160.232-251.056 160.232-251.056S456.333 293.112 457.43 295.24c5.15 10.091 17.438 14.005 27.46 8.856 9.955-5.149 13.937-17.506 8.788-27.598z"/>
    <path d="M385.005 474.968c-70.161 0-115.333-52.587-117.53-55.196-7.483-8.856-6.316-22.174 2.54-29.657 8.856-7.483 22.105-6.384 29.588 2.472 2.06 2.334 46.134 52.723 109.91 37.208 26.843-6.522 47.987-22.311 68.514-37.552 27.46-20.458 55.813-41.533 95.287-38.581 69.406 5.148 112.862 52.174 114.647 54.234 7.826 8.581 7.208 21.9-1.442 29.726-8.581 7.826-21.9 7.208-29.726-1.442-.274-.275-34.394-36.66-86.637-40.504-23.822-1.785-42.838 12.426-67.003 30.344-22.724 16.956-48.536 36.178-83.685 44.76-12.083 2.883-23.616 4.188-34.463 4.188zm0 141.145c-70.161 0-115.333-52.586-117.53-55.195-7.483-8.856-6.316-22.174 2.54-29.657 8.856-7.483 22.105-6.384 29.588 2.472 2.06 2.334 46.134 52.723 109.91 37.208 26.843-6.522 47.987-22.311 68.514-37.552 27.46-20.458 55.813-41.533 95.287-38.581 69.406 5.148 112.862 52.174 114.647 54.234 7.826 8.581 7.208 21.9-1.442 29.725-8.581 7.827-21.9 7.209-29.726-1.441-.274-.275-34.394-36.66-86.637-40.504-23.822-1.785-42.838 12.426-67.003 30.343-22.724 16.957-48.536 36.18-83.685 44.76-12.083 2.884-23.616 4.188-34.463 4.188z"/>
  </g>
</svg>