<svg xmlns="http://www.w3.org/2000/svg" viewBox="0 0 1000 1000" xml:space="preserve">
  <path fill="#38bdf8" d="M636.5 320.1c-1.9-3.7-131.5-216.6-189.3-298-.8-1.2-9.6-12.3-23.9-12.1-14.4.3-23.2 10.2-24.1 11.5-88.8 119.7-276.7 435.2-276.8 435.3C90 511 72.6 573.2 72.6 637.9 72.6 832.4 229.5 990 423.1 990c16.4 0 29.7-13.4 29.7-29.9s-13.3-29.9-29.7-29.9c-160.7 0-290.9-130.9-290.9-292.4 0-53.7 14.4-105.3 41.3-150.3.2-.3.2-.6.3-.9.5-.7 8.2-16.1 15.5-30.1 12.3-23.7 233.4-365.7 233.4-365.7s159.4 253.5 161 256.6c7.5 14.7 25.4 20.4 40 12.9 14.5-7.5 20.3-25.5 12.8-40.2z"/>
  <path fill="#38bdf8" d="M478.2 609.2c-102.2 0-168-76.6-171.2-80.4-10.9-12.9-9.2-32.3 3.7-43.2 12.9-10.9 32.2-9.3 43.1 3.6 3 3.4 67.2 76.8 160.1 54.2 39.1-9.5 69.9-32.5 99.8-54.7 40-29.8 81.3-60.5 138.8-56.2 101.1 7.5 164.4 76 167 79 11.4 12.5 10.5 31.9-2.1 43.3-12.5 11.4-31.9 10.5-43.3-2.1-.4-.4-50.1-53.4-126.2-59-34.7-2.6-62.4 18.1-97.6 44.2-33.1 24.7-70.7 52.7-121.9 65.2-17.6 4.2-34.4 6.1-50.2 6.1zM478.2 814.8c-102.2 0-168-76.6-171.2-80.4-10.9-12.9-9.2-32.3 3.7-43.2 12.9-10.9 32.2-9.3 43.1 3.6 3 3.4 67.2 76.8 160.1 54.2 39.1-9.5 69.9-32.5 99.8-54.7 40-29.8 81.3-60.5 138.8-56.2 101.1 7.5 164.4 76 167 79 11.4 12.5 10.5 31.9-2.1 43.3-12.5 11.4-31.9 10.5-43.3-2.1-.4-.4-50.1-53.4-126.2-59-34.7-2.6-62.4 18.1-97.6 44.2-33.1 24.7-70.7 52.7-121.9 65.2-17.6 4.2-34.4 6.1-50.2 6.1z"/>
</svg>